<svg width="382" height="92" viewBox="0 0 382 92" fill="none" xmlns="http://www.w3.org/2000/svg">
<g clip-path="url(#clip0_9711_2)">
<path d="M349.996 65.2148C344.221 65.2148 338.868 63.7728 333.939 60.8838C329.009 57.9988 325.116 54.0718 322.262 49.1098C319.406 44.1478 317.98 38.7458 317.98 32.9068C317.98 27.0688 319.406 21.6688 322.262 16.7058C325.116 11.7428 329.009 7.81884 333.939 4.93184C338.868 2.04484 344.221 0.601845 349.996 0.601845C355.768 0.601845 361.121 2.04484 366.052 4.93184C370.981 7.81884 374.874 11.7428 377.729 16.7058C380.583 21.6688 382.011 27.0688 382.011 32.9068C382.011 38.7458 380.583 44.1478 377.729 49.1098C374.874 54.0718 370.981 57.9988 366.052 60.8838C361.121 63.7728 355.768 65.2148 349.996 65.2148Z" fill="#EA252B"/>
<path d="M349.996 5.07628C344.999 5.07628 340.393 6.32628 336.178 8.82328C331.96 11.3203 328.602 14.6953 326.105 18.9423C323.607 23.1923 322.359 27.8473 322.359 32.9063C322.359 37.9673 323.607 42.6233 326.105 46.8703C328.602 51.1203 331.96 54.4943 336.178 56.9913C340.393 59.4893 344.999 60.7383 349.996 60.7383C354.99 60.7383 359.596 59.4893 363.813 56.9913C368.03 54.4943 371.37 51.1203 373.837 46.8703C376.301 42.6233 377.534 37.9673 377.534 32.9063C377.534 27.8473 376.301 23.1923 373.837 18.9423C371.37 14.6953 368.03 11.3203 363.813 8.82328C359.596 6.32628 354.99 5.07628 349.996 5.07628Z" fill="#EA252B"/>
<path d="M128.838 85.5637C128.838 87.5847 127.199 89.2227 125.178 89.2227C123.157 89.2227 121.518 87.5847 121.518 85.5637C121.518 83.5427 123.157 81.9037 125.178 81.9037C127.199 81.9037 128.838 83.5427 128.838 85.5637Z" fill="#EA252B"/>
<path d="M253.143 85.5637C253.143 87.5847 251.505 89.2227 249.484 89.2227C247.462 89.2227 245.824 87.5847 245.824 85.5637C245.824 83.5427 247.462 81.9037 249.484 81.9037C251.505 81.9037 253.143 83.5427 253.143 85.5637Z" fill="#EA252B"/>
<mask id="mask0_9711_2" style="mask-type:luminance" maskUnits="userSpaceOnUse" x="-230" y="-378" width="842" height="596">
<path d="M-230 -378.001H611.89V217.275H-230V-378.001Z" fill="white"/>
</mask>
<g mask="url(#mask0_9711_2)">
<path d="M48.8259 64.5325H42.9879L20.3139 37.5775L-0.12207 65.6035V1.28152H4.25793V51.9795L41.1389 1.28152H46.6849L22.9419 33.7825L48.8259 64.5325Z" fill="white"/>
<path d="M85.2191 5.07684C80.2221 5.07684 75.6171 6.32684 71.4011 8.82384C67.1831 11.3208 63.8261 14.6958 61.3291 18.9428C58.8311 23.1928 57.5821 27.8478 57.5821 32.9068C57.5821 37.9678 58.8311 42.6238 61.3291 46.8708C63.8261 51.1208 67.1831 54.4948 71.4011 56.9918C75.6171 59.4898 80.2221 60.7388 85.2191 60.7388C90.2131 60.7388 94.8191 59.4898 99.0371 56.9918C103.253 54.4948 106.594 51.1208 109.06 46.8708C111.524 42.6238 112.758 37.9678 112.758 32.9068C112.758 27.8478 111.524 23.1928 109.06 18.9428C106.594 14.6958 103.253 11.3208 99.0371 8.82384C94.8191 6.32684 90.2131 5.07684 85.2191 5.07684ZM85.2191 65.2148C79.4441 65.2148 74.0921 63.7718 69.1631 60.8838C64.2321 57.9988 60.3391 54.0718 57.4861 49.1088C54.6301 44.1468 53.2041 38.7458 53.2041 32.9068C53.2041 27.0688 54.6301 21.6688 57.4861 16.7058C60.3391 11.7428 64.2321 7.81784 69.1631 4.93084C74.0921 2.04484 79.4441 0.600845 85.2191 0.600845C90.9921 0.600845 96.3441 2.04484 101.275 4.93084C106.204 7.81784 110.097 11.7428 112.952 16.7058C115.806 21.6688 117.234 27.0688 117.234 32.9068C117.234 38.7458 115.806 44.1468 112.952 49.1088C110.097 54.0718 106.204 57.9988 101.275 60.8838C96.3441 63.7718 90.9921 65.2148 85.2191 65.2148Z" fill="white"/>
<path d="M180.29 64.5325H174.452L151.778 37.5775L131.342 65.6035V1.28152H135.722V51.9795L172.603 1.28152H178.149L154.406 33.7825L180.29 64.5325Z" fill="white"/>
<path d="M216.683 5.07684C211.687 5.07684 207.08 6.32684 202.865 8.82384C198.647 11.3208 195.289 14.6958 192.792 18.9428C190.295 23.1928 189.046 27.8478 189.046 32.9068C189.046 37.9678 190.295 42.6238 192.792 46.8708C195.289 51.1208 198.647 54.4948 202.865 56.9918C207.08 59.4898 211.687 60.7388 216.683 60.7388C221.677 60.7388 226.283 59.4898 230.501 56.9918C234.717 54.4948 238.057 51.1208 240.524 46.8708C242.988 42.6238 244.221 37.9678 244.221 32.9068C244.221 27.8478 242.988 23.1928 240.524 18.9428C238.057 14.6958 234.717 11.3208 230.501 8.82384C226.283 6.32684 221.677 5.07684 216.683 5.07684ZM216.683 65.2148C210.908 65.2148 205.556 63.7718 200.626 60.8838C195.696 57.9988 191.803 54.0718 188.949 49.1088C186.094 44.1468 184.668 38.7458 184.668 32.9068C184.668 27.0688 186.094 21.6688 188.949 16.7058C191.803 11.7428 195.696 7.81784 200.626 4.93084C205.556 2.04484 210.908 0.600845 216.683 0.600845C222.455 0.600845 227.808 2.04484 232.739 4.93084C237.668 7.81784 241.561 11.7428 244.416 16.7058C247.27 21.6688 248.698 27.0688 248.698 32.9068C248.698 38.7458 247.27 44.1468 244.416 49.1088C241.561 54.0718 237.668 57.9988 232.739 60.8838C227.808 63.7718 222.455 65.2148 216.683 65.2148Z" fill="white"/>
<path d="M300.172 64.5332L273.898 32.6152H281.683C286.484 32.6152 290.376 32.0012 293.36 30.7662C295.565 29.7302 297.479 28.1562 299.102 26.0482C300.723 23.9402 301.534 21.6202 301.534 19.0902C301.534 16.8192 300.854 14.6612 299.49 12.6182C298.128 10.5752 296.183 8.9052 293.652 7.6072C291.122 6.3092 288.203 5.6612 284.895 5.6612H267.184V64.5332H262.805V1.2822H284.895C287.877 1.2822 290.667 1.7542 293.263 2.6932C295.857 3.6342 298.128 4.97921 300.074 6.7312C301.955 8.4192 303.399 10.3322 304.405 12.4732C305.41 14.6142 305.913 16.8192 305.913 19.0902C305.913 22.6582 304.843 25.8522 302.701 28.6752C300.561 31.4962 298.031 33.5252 295.112 34.7572C293.101 35.6662 291.137 36.2332 289.225 36.4592C287.311 36.6872 285.283 36.8012 283.143 36.8012L306.011 64.5332H300.172Z" fill="white"/>
<path d="M7.64793 85.9522H0.709929V91.4082H-0.12207V85.1212V79.6642H0.709929V85.1212H7.64793V79.6642H8.46093V85.5182V91.4082H7.64793V85.9522Z" fill="white"/>
<path d="M23.2588 91.4082V79.6642H30.8648V80.4952H24.0718V85.1212H29.3658V85.9522H24.0718V90.5582H30.8648V91.4082H23.2588Z" fill="white"/>
<path d="M50.1971 81.5252L47.3791 87.6142H52.8891L50.1971 81.5252ZM46.9991 88.4272L45.6081 91.4082H44.7041L50.2331 79.5192L55.4551 91.4082H54.5701L53.2501 88.4272H46.9991Z" fill="white"/>
<path d="M76.2505 91.4082L71.3725 85.4822H72.8175C73.7085 85.4822 74.4325 85.3682 74.9855 85.1382C75.3955 84.9462 75.7505 84.6542 76.0525 84.2622C76.3535 83.8712 76.5035 83.4402 76.5035 82.9702C76.5035 82.5492 76.3775 82.1482 76.1245 81.7692C75.8715 81.3892 75.5105 81.0802 75.0405 80.8392C74.5705 80.5972 74.0285 80.4762 73.4145 80.4762H70.1255V91.4082H69.3135V79.6642H73.4145C73.9685 79.6642 74.4865 79.7522 74.9685 79.9262C75.4495 80.1002 75.8715 80.3502 76.2325 80.6762C76.5825 80.9892 76.8505 81.3452 77.0365 81.7422C77.2235 82.1392 77.3165 82.5492 77.3165 82.9702C77.3165 83.6332 77.1185 84.2262 76.7205 84.7502C76.3235 85.2742 75.8535 85.6512 75.3115 85.8792C74.9385 86.0492 74.5735 86.1532 74.2185 86.1952C73.8625 86.2382 73.4865 86.2592 73.0885 86.2592L77.3345 91.4082H76.2505Z" fill="white"/>
<path d="M100.896 79.6642V80.4952H96.2528V91.4082H95.4208V80.4952H90.7598V79.6642H100.896Z" fill="white"/>
<path d="M160.753 91.4082V82.1222L155.55 89.5482L150.274 82.1032V91.4082H149.461V79.5192L155.55 88.1192L161.566 79.5192V91.4082H160.753Z" fill="white"/>
<path d="M176.582 79.6622H177.395V91.4062H176.582V79.6622Z" fill="white"/>
<path d="M193.221 81.8694V91.4084H192.408V79.5194L200.538 89.2404V79.6644H201.351V91.6074L193.221 81.8694Z" fill="white"/>
<path d="M216.944 90.5952H219.509C220.966 90.5952 222.153 90.0842 223.069 89.0602C223.49 88.6022 223.812 88.0692 224.036 87.4612C224.257 86.8532 224.37 86.2052 224.37 85.5192C224.37 84.8442 224.257 84.2022 224.036 83.5942C223.812 82.9872 223.49 82.4532 223.069 81.9952C222.141 80.9952 220.955 80.4952 219.509 80.4952H216.944V90.5952ZM219.509 91.4082H216.131V79.6642H219.509C220.34 79.6642 221.111 79.8182 221.822 80.1252C222.533 80.4332 223.147 80.8692 223.665 81.4362C224.159 81.9772 224.538 82.5972 224.803 83.2962C225.068 83.9952 225.201 84.7362 225.201 85.5192C225.201 86.3022 225.068 87.0422 224.803 87.7412C224.538 88.4402 224.159 89.0662 223.665 89.6192C223.147 90.1992 222.533 90.6412 221.822 90.9482C221.111 91.2552 220.34 91.4082 219.509 91.4082Z" fill="white"/>
<path d="M281.402 86.8628C281.709 87.3138 281.862 87.7998 281.862 88.3168C281.862 88.7628 281.754 89.1868 281.537 89.5908C281.32 89.9948 281.006 90.3468 280.597 90.6478C279.754 91.2508 278.773 91.5508 277.653 91.5508C277.097 91.5508 276.568 91.4728 276.063 91.3168C275.556 91.1598 275.104 90.9368 274.708 90.6478C274.02 90.1418 273.605 89.5218 273.461 88.7868L274.237 88.3528C274.274 89.0158 274.599 89.5578 275.214 89.9798C275.526 90.2198 275.893 90.4038 276.315 90.5308C276.737 90.6568 277.183 90.7198 277.653 90.7198C278.616 90.7198 279.429 90.4728 280.091 89.9798C280.73 89.5098 281.049 88.9568 281.049 88.3168C281.049 87.9438 280.932 87.5938 280.697 87.2698C280.463 86.9438 280.133 86.6678 279.713 86.4378C279.314 86.2338 278.603 86.0708 277.58 85.9508C277.496 85.9378 277.191 85.8898 276.668 85.8058C276.143 85.7208 275.694 85.5898 275.321 85.4078C274.731 85.1198 274.267 84.7368 273.93 84.2608C273.593 83.7848 273.424 83.2708 273.424 82.7168C273.424 82.2708 273.536 81.8518 273.758 81.4608C273.981 81.0688 274.298 80.7218 274.708 80.4218C275.104 80.1328 275.556 79.9098 276.063 79.7538C276.568 79.5968 277.097 79.5178 277.653 79.5178C278.773 79.5178 279.754 79.8188 280.597 80.4218C281.296 80.9518 281.706 81.5658 281.826 82.2638L281.049 82.6978C281.037 82.3968 280.95 82.1078 280.787 81.8308C280.624 81.5538 280.392 81.3008 280.091 81.0718C279.766 80.8318 279.393 80.6478 278.97 80.5208C278.549 80.3938 278.11 80.3318 277.653 80.3318C277.194 80.3318 276.753 80.3938 276.324 80.5208C275.897 80.6478 275.526 80.8318 275.214 81.0718C274.9 81.3008 274.66 81.5568 274.491 81.8408C274.321 82.1238 274.237 82.4158 274.237 82.7168C274.237 83.0908 274.376 83.4608 274.653 83.8278C274.93 84.1948 275.273 84.4808 275.683 84.6848C275.936 84.8058 276.216 84.8938 276.523 84.9478C276.83 85.0018 277.224 85.0588 277.707 85.1198C277.791 85.1318 278.001 85.1618 278.339 85.2098C278.676 85.2578 279.001 85.3238 279.314 85.4078C279.628 85.4928 279.893 85.5948 280.11 85.7158C280.663 86.0288 281.093 86.4108 281.402 86.8628Z" fill="white"/>
<path d="M297.056 85.4652H300.416C300.958 85.4652 301.458 85.3532 301.916 85.1302C302.374 84.9062 302.739 84.6062 303.009 84.2272C303.281 83.8472 303.415 83.4352 303.415 82.9892C303.415 82.5312 303.281 82.1122 303.009 81.7332C302.739 81.3542 302.374 81.0532 301.916 80.8292C301.458 80.6072 300.958 80.4952 300.416 80.4952H297.038L297.056 85.4652ZM296.243 91.4082L296.225 79.6642H300.416C301.103 79.6642 301.739 79.8162 302.323 80.1162C302.907 80.4172 303.371 80.8202 303.714 81.3262C304.058 81.8322 304.229 82.3872 304.229 82.9892C304.229 83.5792 304.058 84.1302 303.714 84.6422C303.371 85.1542 302.907 85.5612 302.323 85.8612C301.739 86.1622 301.103 86.3132 300.416 86.3132H297.056V91.4082H296.243Z" fill="white"/>
<path d="M318.502 79.6622H319.315V91.4062H318.502V79.6622Z" fill="white"/>
<path d="M341.251 91.4082L336.372 85.4822H337.818C338.709 85.4822 339.432 85.3682 339.986 85.1382C340.396 84.9462 340.751 84.6542 341.052 84.2622C341.354 83.8712 341.503 83.4402 341.503 82.9702C341.503 82.5492 341.378 82.1482 341.125 81.7692C340.872 81.3892 340.511 81.0802 340.041 80.8392C339.571 80.5972 339.028 80.4762 338.415 80.4762H335.126V91.4082H334.312V79.6642H338.415C338.969 79.6642 339.486 79.7522 339.968 79.9262C340.45 80.1002 340.872 80.3502 341.233 80.6762C341.582 80.9892 341.85 81.3452 342.036 81.7422C342.223 82.1392 342.316 82.5492 342.316 82.9702C342.316 83.6332 342.118 84.2262 341.72 84.7502C341.323 85.2742 340.854 85.6512 340.312 85.8792C339.939 86.0492 339.574 86.1532 339.219 86.1952C338.862 86.2382 338.487 86.2592 338.089 86.2592L342.335 91.4082H341.251Z" fill="white"/>
<path d="M357.004 79.6622H357.817V91.4062H357.004V79.6622Z" fill="white"/>
<path d="M382.011 79.6642V80.4952H377.368V91.4082H376.536V80.4952H371.875V79.6642H382.011Z" fill="white"/>
</g>
</g>
<defs>
<clipPath id="clip0_9711_2">
<rect width="382" height="92" fill="white"/>
</clipPath>
</defs>
</svg>
